<?xml version="1.0" encoding="UTF-8" standalone="no"?>
<!DOCTYPE svg PUBLIC "-//W3C//DTD SVG 1.1//EN" "http://www.w3.org/Graphics/SVG/1.1/DTD/svg11.dtd">
<svg width="100%" height="100%" viewBox="0 0 122 92" version="1.1" xmlns="http://www.w3.org/2000/svg" xmlns:xlink="http://www.w3.org/1999/xlink" xml:space="preserve" xmlns:serif="http://www.serif.com/" style="fill-rule:evenodd;clip-rule:evenodd;stroke-linejoin:round;stroke-miterlimit:2;">
    <g transform="matrix(1,0,0,1,-39,-63)">
        <g id="icon" transform="matrix(1,0,0,1,-744.518,-274.937)">
            <path d="M799.74,338.93C799.178,338.922 798.625,338.922 798.51,338.932C798.395,338.941 798.048,338.978 797.738,339.014C797.429,339.05 796.939,339.125 796.649,339.18C796.359,339.237 795.846,339.358 795.507,339.451C795.17,339.544 794.609,339.726 794.263,339.855C793.916,339.985 793.303,340.254 792.902,340.453C792.5,340.652 791.972,340.936 791.727,341.086C791.483,341.235 791.095,341.49 790.865,341.653C790.635,341.816 790.234,342.122 789.974,342.334C789.715,342.545 789.238,342.981 788.916,343.303C788.594,343.626 788.189,344.058 788.016,344.265C787.844,344.471 787.563,344.828 787.394,345.057C787.224,345.286 786.937,345.708 786.757,345.995C786.576,346.282 786.245,346.892 786.019,347.35C785.794,347.809 785.523,348.419 785.416,348.705C785.31,348.991 785.161,349.442 785.084,349.706C785.008,349.97 784.895,350.411 784.833,350.685C784.772,350.959 784.686,351.425 784.643,351.72C784.599,352.015 784.542,352.541 784.515,352.889C784.486,353.264 784.476,353.853 784.491,354.335C784.504,354.782 784.553,355.442 784.6,355.801C784.647,356.16 784.732,356.68 784.791,356.957C784.85,357.234 784.971,357.719 785.06,358.035C785.149,358.351 785.31,358.844 785.417,359.131C785.524,359.417 785.77,359.98 785.964,360.382C786.159,360.783 786.452,361.336 786.616,361.61C786.78,361.885 787.061,362.314 787.241,362.565C787.42,362.817 787.73,363.221 787.928,363.464C788.127,363.706 788.562,364.178 788.896,364.512C789.229,364.846 789.715,365.292 789.975,365.503C790.234,365.714 790.635,366.02 790.865,366.183C791.095,366.346 791.483,366.602 791.727,366.75C791.972,366.9 792.501,367.185 792.905,367.385C793.308,367.584 793.927,367.855 794.281,367.985C794.634,368.115 795.158,368.288 795.445,368.37C795.732,368.451 796.238,368.571 796.571,368.638C796.903,368.704 797.438,368.792 797.759,368.833C798.2,368.889 798.628,368.907 799.51,368.906C800.468,368.905 800.8,368.888 801.356,368.813C801.729,368.763 802.179,368.693 802.357,368.657C802.535,368.621 802.905,368.536 803.18,368.467C803.455,368.398 803.953,368.251 804.285,368.14C804.618,368.029 805.094,367.85 805.345,367.743C805.595,367.636 806.004,367.446 806.252,367.321C806.501,367.196 806.906,366.974 807.152,366.828C807.399,366.682 807.807,366.417 808.059,366.24C808.311,366.064 808.688,365.783 808.895,365.616C809.103,365.449 809.489,365.115 809.753,364.874C810.017,364.633 810.436,364.209 810.685,363.932C810.933,363.654 811.293,363.226 811.484,362.98C811.675,362.734 811.996,362.281 812.197,361.974L812.562,361.416L814.105,361.436C815.198,361.449 815.796,361.475 816.154,361.523C816.432,361.56 816.845,361.629 817.071,361.675C817.298,361.722 817.699,361.817 817.963,361.887C818.227,361.957 818.696,362.108 819.005,362.224C819.315,362.339 819.831,362.56 820.152,362.716C820.473,362.872 820.983,363.149 821.285,363.331C821.587,363.513 822.054,363.82 822.323,364.013C822.592,364.206 823.04,364.553 823.318,364.784C823.597,365.015 824.034,365.403 824.291,365.645C824.547,365.887 824.981,366.321 825.254,366.61C825.528,366.898 825.919,367.327 826.124,367.563C826.329,367.799 826.663,368.198 826.866,368.451C827.07,368.702 827.474,369.228 827.765,369.618C828.055,370.008 828.492,370.614 828.734,370.965C828.977,371.315 829.408,371.963 829.692,372.403C829.976,372.844 830.444,373.589 830.731,374.059C831.018,374.529 831.544,375.421 831.899,376.04C832.254,376.659 832.836,377.7 833.193,378.354C833.549,379.008 834.127,380.087 834.477,380.752C834.827,381.417 836.196,384.11 837.52,386.736C838.844,389.362 840.175,391.989 840.479,392.574C840.783,393.159 841.136,393.834 841.263,394.075C841.39,394.316 841.7,394.898 841.953,395.368C842.205,395.838 842.617,396.598 842.87,397.057C843.122,397.515 843.591,398.35 843.913,398.912C844.234,399.474 844.716,400.3 844.984,400.747C845.252,401.194 845.675,401.889 845.925,402.29C846.176,402.691 846.696,403.497 847.083,404.081C847.47,404.664 847.985,405.424 848.228,405.769C848.47,406.115 848.935,406.754 849.26,407.19C849.585,407.626 850.075,408.264 850.349,408.608C850.623,408.952 851.07,409.496 851.342,409.817C851.615,410.138 852.083,410.673 852.383,411.005C852.682,411.338 853.331,412.014 853.825,412.506C854.318,413 854.965,413.621 855.263,413.887C855.561,414.153 856.056,414.579 856.362,414.834C856.667,415.089 857.207,415.514 857.56,415.78C857.912,416.046 858.488,416.457 858.838,416.693C859.188,416.93 859.672,417.245 859.913,417.393C860.154,417.541 860.585,417.794 860.872,417.956C861.159,418.118 861.718,418.413 862.116,418.612C862.514,418.811 863.161,419.112 863.555,419.28C863.949,419.449 864.608,419.709 865.021,419.859C865.434,420.008 866.063,420.216 866.418,420.319C866.774,420.423 867.327,420.574 867.648,420.654C867.969,420.733 868.523,420.857 868.878,420.928C869.234,420.999 869.844,421.103 870.234,421.159C870.624,421.215 871.224,421.29 871.568,421.324C871.912,421.359 872.541,421.407 872.965,421.429C873.39,421.453 874.357,421.472 875.117,421.472L876.497,421.472L876.718,421.837C876.839,422.037 877.07,422.389 877.232,422.619C877.394,422.848 877.667,423.214 877.84,423.432C878.012,423.65 878.474,424.149 878.864,424.541C879.255,424.933 879.809,425.44 880.096,425.667C880.383,425.894 880.814,426.213 881.055,426.377C881.296,426.54 881.698,426.792 881.949,426.936C882.2,427.08 882.67,427.325 882.992,427.48C883.314,427.634 883.7,427.809 883.849,427.867C883.998,427.925 884.28,428.032 884.474,428.103C884.669,428.175 885.086,428.306 885.399,428.395C885.713,428.483 886.21,428.605 886.504,428.664C886.798,428.724 887.339,428.813 887.706,428.862C888.25,428.935 888.588,428.952 889.541,428.953C890.423,428.955 890.851,428.937 891.292,428.881C891.613,428.84 892.149,428.752 892.483,428.686C892.817,428.619 893.39,428.478 893.755,428.372C894.12,428.266 894.682,428.076 895.003,427.949C895.325,427.822 895.864,427.58 896.201,427.411C896.539,427.242 897.008,426.988 897.244,426.847C897.48,426.705 897.851,426.466 898.068,426.315C898.286,426.164 898.699,425.853 898.986,425.624C899.273,425.395 899.79,424.925 900.135,424.581C900.48,424.235 900.936,423.741 901.147,423.481C901.357,423.221 901.663,422.821 901.826,422.591C901.989,422.362 902.255,421.955 902.417,421.688C902.579,421.421 902.875,420.864 903.076,420.451C903.277,420.038 903.525,419.472 903.629,419.193C903.732,418.914 903.894,418.417 903.989,418.088C904.083,417.759 904.215,417.217 904.281,416.885C904.348,416.552 904.435,416.018 904.476,415.697C904.531,415.263 904.55,414.817 904.55,413.966C904.55,413.115 904.531,412.669 904.476,412.235C904.436,411.914 904.348,411.379 904.281,411.047C904.215,410.715 904.083,410.173 903.989,409.844C903.894,409.514 903.732,409.017 903.629,408.739C903.525,408.46 903.281,407.904 903.087,407.502C902.893,407.101 902.599,406.548 902.436,406.274C902.271,406 901.99,405.57 901.81,405.319C901.631,405.068 901.321,404.663 901.123,404.42C900.924,404.178 900.479,403.697 900.135,403.351C899.789,403.006 899.273,402.536 898.986,402.307C898.699,402.078 898.286,401.768 898.068,401.617C897.851,401.466 897.48,401.227 897.243,401.085C897.008,400.943 896.539,400.689 896.201,400.521C895.864,400.352 895.318,400.107 894.989,399.977C894.66,399.848 894.107,399.659 893.759,399.56C893.411,399.46 892.895,399.33 892.612,399.27C892.329,399.21 891.803,399.123 891.444,399.076C891.085,399.03 890.435,398.981 889.999,398.967C889.544,398.954 888.931,398.963 888.558,398.991C888.202,399.017 887.667,399.074 887.369,399.118C887.071,399.162 886.603,399.248 886.328,399.309C886.054,399.371 885.607,399.485 885.336,399.563C885.065,399.641 884.587,399.8 884.273,399.918C883.959,400.035 883.453,400.25 883.149,400.395C882.844,400.54 882.422,400.757 882.21,400.876C881.999,400.996 881.592,401.248 881.305,401.436C881.018,401.624 880.589,401.929 880.352,402.114C880.115,402.299 879.698,402.648 879.427,402.89C879.156,403.132 878.732,403.551 878.485,403.822C878.239,404.091 877.879,404.509 877.687,404.75C877.495,404.991 877.146,405.476 876.913,405.828L876.488,406.467L874.925,406.447C873.817,406.432 873.221,406.406 872.881,406.359C872.618,406.322 872.252,406.263 872.068,406.227C871.885,406.192 871.487,406.098 871.184,406.02C870.881,405.942 870.374,405.781 870.058,405.665C869.742,405.548 869.22,405.323 868.898,405.166C868.576,405.01 868.066,404.731 867.764,404.549C867.462,404.367 866.985,404.051 866.702,403.848C866.419,403.646 865.972,403.299 865.709,403.079C865.445,402.86 865.012,402.475 864.747,402.224C864.482,401.973 864.05,401.543 863.788,401.267C863.525,400.992 863.141,400.569 862.933,400.329C862.725,400.089 862.388,399.686 862.185,399.433C861.981,399.181 861.577,398.656 861.286,398.266C860.996,397.876 860.559,397.27 860.317,396.919C860.074,396.569 859.643,395.921 859.359,395.481C859.074,395.04 858.602,394.287 858.309,393.807C858.016,393.327 857.49,392.436 857.141,391.826C856.792,391.217 856.215,390.183 855.858,389.53C855.502,388.876 854.924,387.797 854.574,387.132C854.224,386.467 852.854,383.774 851.531,381.148C850.207,378.522 848.876,375.894 848.572,375.31C848.268,374.725 847.915,374.049 847.788,373.809C847.661,373.568 847.351,372.986 847.098,372.516C846.846,372.046 846.434,371.286 846.181,370.827C845.929,370.368 845.459,369.533 845.138,368.972C844.817,368.409 844.329,367.575 844.054,367.116C843.779,366.657 843.319,365.907 843.031,365.448C842.744,364.989 842.228,364.192 841.884,363.676C841.54,363.16 841.062,362.456 840.821,362.112C840.579,361.768 840.116,361.13 839.791,360.694C839.469,360.249 838.979,359.61 838.705,359.267C838.431,358.923 837.984,358.378 837.712,358.057C837.439,357.736 836.971,357.201 836.671,356.87C836.371,356.538 835.741,355.879 835.271,355.407C834.801,354.935 834.191,354.345 833.916,354.095C833.641,353.846 833.125,353.4 832.769,353.103C832.414,352.806 831.804,352.325 831.414,352.033C831.024,351.741 830.417,351.311 830.065,351.076C829.713,350.841 829.112,350.461 828.731,350.232C828.349,350.004 827.539,349.568 826.931,349.264C826.324,348.961 825.44,348.559 824.967,348.37C824.495,348.181 823.769,347.915 823.355,347.778C822.941,347.641 822.201,347.427 821.712,347.301C821.222,347.176 820.541,347.017 820.196,346.949C819.853,346.881 819.252,346.777 818.862,346.719C818.472,346.661 817.862,346.585 817.507,346.551C817.152,346.516 816.514,346.468 816.09,346.445C815.665,346.422 814.697,346.402 813.938,346.402L812.558,346.402L812.337,346.037C812.216,345.836 811.984,345.485 811.822,345.255C811.661,345.026 811.387,344.66 811.213,344.443C811.04,344.225 810.635,343.777 810.314,343.447C809.993,343.116 809.503,342.656 809.224,342.423C808.946,342.19 808.507,341.851 808.249,341.67C807.99,341.488 807.561,341.209 807.295,341.048C807.029,340.888 806.492,340.603 806.103,340.414C805.713,340.225 805.134,339.975 804.817,339.858C804.499,339.74 803.974,339.568 803.649,339.477C803.324,339.385 802.834,339.264 802.558,339.208C802.283,339.152 801.767,339.068 801.412,339.021C800.96,338.961 800.457,338.93 799.744,338.92L799.74,338.93ZM799.412,344.916C799.68,344.913 800.092,344.93 800.33,344.954C800.567,344.978 800.907,345.024 801.085,345.057C801.263,345.09 801.556,345.155 801.736,345.201C801.917,345.247 802.259,345.352 802.497,345.435C802.735,345.517 803.164,345.699 803.449,345.84C803.734,345.98 804.169,346.23 804.415,346.394C804.662,346.559 805.001,346.806 805.171,346.945C805.34,347.083 805.644,347.362 805.847,347.565C806.051,347.768 806.337,348.083 806.484,348.265C806.631,348.447 806.87,348.775 807.015,348.995C807.161,349.214 807.375,349.58 807.493,349.809C807.61,350.037 807.779,350.413 807.869,350.643C807.959,350.873 808.081,351.228 808.14,351.432C808.199,351.635 808.284,351.992 808.329,352.224C808.375,352.456 808.431,352.84 808.455,353.078C808.478,353.315 808.497,353.694 808.497,353.918C808.497,354.142 808.477,354.52 808.454,354.758C808.43,354.995 808.384,355.335 808.35,355.513C808.317,355.691 808.252,355.985 808.206,356.167C808.159,356.349 808.064,356.66 807.994,356.859C807.924,357.058 807.795,357.383 807.707,357.581C807.62,357.78 807.441,358.13 807.309,358.359C807.177,358.588 806.984,358.898 806.879,359.047C806.775,359.196 806.564,359.468 806.411,359.652C806.258,359.835 806.006,360.112 805.852,360.267C805.699,360.422 805.419,360.677 805.231,360.834C805.043,360.991 804.74,361.222 804.556,361.348C804.373,361.474 804.069,361.664 803.881,361.771C803.693,361.878 803.365,362.043 803.151,362.138C802.938,362.232 802.604,362.364 802.409,362.431C802.214,362.498 801.909,362.59 801.732,362.635C801.554,362.681 801.263,362.745 801.085,362.778C800.907,362.812 800.567,362.858 800.33,362.882C800.092,362.906 799.714,362.925 799.49,362.925C799.265,362.925 798.887,362.906 798.65,362.882C798.412,362.858 798.066,362.81 797.88,362.776C797.694,362.742 797.371,362.668 797.162,362.612C796.953,362.556 796.598,362.442 796.374,362.359C796.15,362.276 795.742,362.096 795.468,361.958C795.195,361.822 794.785,361.587 794.558,361.437C794.331,361.288 793.983,361.029 793.784,360.864C793.585,360.698 793.275,360.414 793.094,360.233C792.913,360.051 792.653,359.764 792.516,359.597C792.378,359.429 792.131,359.091 791.968,358.846C791.805,358.601 791.561,358.18 791.428,357.91C791.295,357.64 791.113,357.214 791.024,356.963C790.934,356.713 790.822,356.357 790.775,356.172C790.728,355.988 790.662,355.691 790.629,355.513C790.596,355.335 790.55,354.995 790.526,354.758C790.502,354.52 790.483,354.142 790.483,353.918C790.483,353.694 790.502,353.315 790.526,353.078C790.55,352.84 790.596,352.501 790.629,352.322C790.662,352.145 790.728,351.848 790.775,351.664C790.822,351.479 790.936,351.118 791.027,350.861C791.119,350.604 791.301,350.178 791.432,349.915C791.564,349.651 791.805,349.235 791.968,348.99C792.131,348.745 792.378,348.407 792.516,348.239C792.653,348.072 792.913,347.785 793.094,347.603C793.275,347.422 793.585,347.138 793.784,346.972C793.983,346.806 794.331,346.548 794.558,346.399C794.785,346.249 795.199,346.011 795.478,345.871C795.757,345.73 796.192,345.542 796.444,345.452C796.697,345.361 797.087,345.242 797.311,345.187C797.535,345.132 797.84,345.065 797.989,345.038C798.138,345.012 798.41,344.975 798.593,344.956C798.777,344.937 799.145,344.92 799.412,344.916L799.412,344.916ZM889.48,404.965C889.748,404.962 890.16,404.979 890.398,405.003C890.635,405.027 890.975,405.073 891.153,405.106C891.331,405.139 891.624,405.204 891.804,405.25C891.985,405.296 892.327,405.402 892.565,405.484C892.803,405.567 893.232,405.75 893.518,405.89C893.804,406.031 894.239,406.28 894.485,406.444C894.73,406.608 895.069,406.855 895.239,406.994C895.408,407.132 895.712,407.411 895.915,407.614C896.118,407.817 896.405,408.132 896.552,408.314C896.699,408.496 896.938,408.824 897.083,409.044C897.229,409.263 897.443,409.629 897.56,409.858C897.678,410.086 897.847,410.462 897.937,410.692C898.027,410.922 898.149,411.277 898.208,411.481C898.267,411.684 898.352,412.041 898.397,412.273C898.443,412.505 898.499,412.889 898.522,413.127C898.546,413.364 898.565,413.742 898.565,413.967C898.565,414.191 898.545,414.569 898.522,414.807C898.498,415.044 898.452,415.384 898.418,415.562C898.385,415.74 898.32,416.034 898.274,416.216C898.227,416.398 898.132,416.709 898.062,416.908C897.992,417.106 897.863,417.432 897.775,417.63C897.688,417.829 897.509,418.179 897.377,418.408C897.245,418.637 897.052,418.947 896.947,419.096C896.843,419.245 896.632,419.517 896.479,419.701C896.326,419.884 896.074,420.161 895.92,420.316C895.767,420.471 895.487,420.726 895.3,420.883C895.111,421.04 894.808,421.271 894.624,421.397C894.441,421.523 894.137,421.713 893.949,421.82C893.761,421.927 893.433,422.092 893.219,422.187C893.006,422.281 892.672,422.413 892.477,422.48C892.282,422.547 891.977,422.639 891.8,422.684C891.622,422.73 891.331,422.794 891.153,422.827C890.975,422.861 890.635,422.907 890.398,422.931C890.16,422.954 889.782,422.974 889.558,422.974C889.333,422.974 888.955,422.954 888.718,422.931C888.48,422.907 888.134,422.859 887.948,422.825C887.762,422.791 887.439,422.717 887.23,422.661C887.021,422.605 886.666,422.491 886.442,422.408C886.218,422.325 885.81,422.145 885.536,422.007C885.263,421.871 884.853,421.636 884.626,421.486C884.399,421.336 884.05,421.078 883.852,420.913C883.653,420.747 883.343,420.463 883.162,420.281C882.981,420.1 882.721,419.813 882.583,419.645C882.446,419.477 882.199,419.14 882.036,418.895C881.872,418.65 881.629,418.229 881.496,417.959C881.363,417.689 881.181,417.263 881.091,417.012C881.002,416.762 880.89,416.405 880.843,416.221C880.796,416.036 880.73,415.74 880.697,415.562C880.664,415.384 880.618,415.044 880.594,414.807C880.57,414.569 880.551,414.191 880.551,413.967C880.551,413.742 880.57,413.364 880.594,413.127C880.618,412.889 880.664,412.549 880.697,412.371C880.73,412.194 880.796,411.897 880.843,411.712C880.89,411.528 881.004,411.167 881.095,410.91C881.187,410.653 881.369,410.227 881.5,409.964C881.631,409.7 881.872,409.284 882.036,409.039C882.199,408.794 882.446,408.456 882.583,408.288C882.721,408.12 882.981,407.834 883.162,407.652C883.343,407.471 883.653,407.186 883.852,407.021C884.05,406.855 884.398,406.598 884.625,406.448C884.852,406.299 885.261,406.063 885.536,405.923C885.81,405.784 886.245,405.596 886.503,405.504C886.761,405.412 887.155,405.291 887.379,405.236C887.603,405.181 887.908,405.113 888.057,405.087C888.206,405.061 888.478,405.024 888.661,405.005C888.845,404.986 889.213,404.968 889.48,404.965L889.48,404.965ZM889.829,338.929C889.278,338.92 888.628,338.929 888.384,338.95C888.14,338.97 887.689,339.024 887.383,339.069C887.076,339.113 886.6,339.2 886.326,339.262C886.05,339.323 885.604,339.438 885.332,339.516C885.061,339.594 884.583,339.753 884.269,339.871C883.955,339.988 883.45,340.202 883.145,340.348C882.841,340.493 882.418,340.71 882.207,340.829C881.995,340.948 881.56,341.22 881.239,341.433C880.918,341.646 880.458,341.978 880.217,342.169C879.976,342.362 879.562,342.717 879.297,342.96C879.032,343.202 878.611,343.628 878.363,343.905C878.114,344.183 877.755,344.611 877.564,344.857C877.373,345.103 877.052,345.554 876.852,345.859L876.492,346.412L827.875,346.412L828.532,346.747C828.893,346.931 829.404,347.204 829.667,347.353C829.93,347.502 830.364,347.758 830.633,347.922C830.901,348.085 831.421,348.42 831.788,348.667C832.155,348.913 832.727,349.316 833.059,349.563C833.392,349.81 833.936,350.232 834.269,350.502C834.601,350.772 835.071,351.165 835.311,351.375C835.552,351.586 836.111,352.098 836.554,352.512C836.996,352.927 837.712,353.643 838.144,354.103C838.576,354.563 839.143,355.184 839.404,355.482C839.665,355.78 840.133,356.334 840.444,356.712C840.756,357.09 841.248,357.71 841.54,358.088C841.831,358.466 842.364,359.189 842.725,359.695C843.085,360.2 843.502,360.795 843.651,361.018L843.922,361.421L860.21,361.422L876.498,361.424L876.719,361.789C876.841,361.99 877.072,362.342 877.234,362.571C877.395,362.8 877.669,363.166 877.842,363.384C878.014,363.602 878.475,364.101 878.866,364.494C879.256,364.886 879.811,365.392 880.098,365.62C880.384,365.846 880.816,366.165 881.057,366.329C881.298,366.492 881.7,366.744 881.951,366.888C882.202,367.032 882.671,367.277 882.994,367.432C883.316,367.587 883.702,367.761 883.851,367.819C884,367.878 884.281,367.984 884.476,368.055C884.671,368.127 885.087,368.258 885.401,368.347C885.715,368.436 886.212,368.557 886.506,368.617C886.8,368.676 887.341,368.765 887.708,368.815C888.252,368.888 888.59,368.904 889.543,368.906C890.425,368.907 890.853,368.889 891.294,368.833C891.615,368.792 892.151,368.704 892.485,368.638C892.819,368.571 893.391,368.43 893.757,368.324C894.122,368.218 894.684,368.028 895.005,367.901C895.326,367.774 895.865,367.532 896.203,367.363C896.541,367.195 897.01,366.941 897.245,366.799C897.481,366.657 897.852,366.418 898.07,366.267C898.288,366.116 898.701,365.806 898.988,365.577C899.274,365.348 899.792,364.878 900.137,364.533C900.482,364.188 900.937,363.693 901.148,363.433C901.359,363.173 901.665,362.773 901.828,362.544C901.99,362.314 902.256,361.907 902.419,361.64C902.58,361.373 902.877,360.817 903.078,360.403C903.278,359.99 903.527,359.424 903.63,359.145C903.734,358.867 903.896,358.37 903.991,358.04C904.085,357.711 904.217,357.17 904.283,356.837C904.35,356.504 904.437,355.97 904.478,355.649C904.533,355.215 904.552,354.769 904.552,353.918C904.552,353.067 904.533,352.621 904.478,352.188C904.437,351.866 904.35,351.331 904.283,350.999C904.217,350.666 904.085,350.125 903.991,349.796C903.896,349.467 903.734,348.97 903.63,348.691C903.527,348.412 903.283,347.856 903.089,347.455C902.894,347.053 902.601,346.501 902.437,346.226C902.273,345.952 901.992,345.522 901.812,345.271C901.632,345.02 901.326,344.621 901.131,344.383C900.936,344.147 900.569,343.737 900.316,343.473C900.062,343.21 899.63,342.801 899.354,342.566C899.079,342.33 898.621,341.969 898.337,341.761C898.053,341.554 897.582,341.241 897.289,341.066C896.996,340.891 896.494,340.616 896.173,340.456C895.852,340.297 895.32,340.06 894.991,339.93C894.662,339.8 894.109,339.612 893.761,339.512C893.413,339.412 892.897,339.282 892.613,339.222C892.33,339.162 891.814,339.075 891.467,339.029C891.037,338.972 890.514,338.939 889.834,338.928L889.829,338.929ZM889.48,344.917C889.748,344.914 890.16,344.931 890.398,344.955C890.635,344.979 890.975,345.025 891.153,345.059C891.331,345.092 891.624,345.156 891.804,345.202C891.985,345.248 892.327,345.353 892.565,345.436C892.803,345.518 893.232,345.7 893.517,345.841C893.802,345.981 894.237,346.231 894.483,346.396C894.729,346.56 895.069,346.808 895.239,346.946C895.408,347.084 895.712,347.363 895.915,347.566C896.119,347.769 896.405,348.084 896.552,348.266C896.699,348.448 896.938,348.777 897.083,348.996C897.229,349.215 897.443,349.581 897.561,349.81C897.678,350.038 897.847,350.414 897.937,350.644C898.027,350.875 898.149,351.229 898.208,351.433C898.267,351.636 898.352,351.993 898.397,352.225C898.443,352.457 898.499,352.842 898.523,353.079C898.546,353.316 898.565,353.695 898.565,353.919C898.565,354.143 898.545,354.522 898.522,354.759C898.498,354.997 898.452,355.336 898.418,355.515C898.385,355.692 898.32,355.987 898.274,356.168C898.227,356.35 898.132,356.661 898.062,356.86C897.992,357.059 897.863,357.384 897.775,357.582C897.688,357.781 897.509,358.131 897.377,358.36C897.245,358.589 897.052,358.899 896.947,359.048C896.843,359.197 896.632,359.469 896.479,359.653C896.326,359.836 896.074,360.113 895.92,360.268C895.767,360.423 895.487,360.678 895.299,360.835C895.111,360.992 894.808,361.223 894.624,361.349C894.441,361.475 894.137,361.666 893.949,361.772C893.761,361.88 893.433,362.044 893.219,362.139C893.006,362.233 892.672,362.365 892.477,362.432C892.282,362.499 891.977,362.591 891.8,362.636C891.622,362.682 891.331,362.747 891.153,362.779C890.975,362.813 890.635,362.859 890.398,362.883C890.16,362.907 889.782,362.926 889.558,362.926C889.333,362.926 888.955,362.907 888.718,362.883C888.48,362.859 888.134,362.812 887.948,362.777C887.762,362.743 887.439,362.669 887.23,362.613C887.021,362.557 886.666,362.443 886.442,362.36C886.218,362.277 885.81,362.097 885.536,361.96C885.263,361.823 884.853,361.588 884.626,361.438C884.399,361.289 884.05,361.031 883.852,360.865C883.653,360.699 883.343,360.415 883.162,360.234C882.981,360.052 882.721,359.765 882.583,359.598C882.446,359.43 882.199,359.092 882.036,358.847C881.872,358.602 881.629,358.181 881.496,357.911C881.363,357.641 881.181,357.215 881.091,356.964C881.002,356.714 880.89,356.358 880.843,356.173C880.796,355.989 880.73,355.692 880.697,355.515C880.664,355.337 880.618,354.997 880.594,354.759C880.57,354.522 880.551,354.143 880.551,353.919C880.551,353.695 880.57,353.317 880.594,353.079C880.618,352.842 880.664,352.502 880.697,352.324C880.73,352.146 880.796,351.849 880.843,351.665C880.89,351.48 881.004,351.119 881.095,350.862C881.187,350.606 881.369,350.179 881.5,349.916C881.631,349.652 881.872,349.236 882.036,348.991C882.199,348.746 882.446,348.408 882.583,348.24C882.721,348.073 882.981,347.786 883.162,347.604C883.343,347.423 883.653,347.139 883.852,346.973C884.05,346.808 884.399,346.549 884.626,346.4C884.853,346.25 885.267,346.012 885.546,345.872C885.825,345.731 886.26,345.543 886.512,345.453C886.765,345.363 887.155,345.243 887.379,345.188C887.602,345.133 887.908,345.066 888.057,345.04C888.206,345.013 888.478,344.976 888.661,344.957C888.845,344.939 889.213,344.921 889.48,344.917L889.48,344.917Z" style="fill:rgb(141,197,62);fill-rule:nonzero;"/>
        </g>
    </g>
</svg>
